<svg aria-hidden="true" style="width:0;height:0;position:absolute;overflow:hidden" xmlns="http://www.w3.org/2000/svg"><defs><symbol id="icon-location-pin" viewBox="0 0 24 24"><path d="M12 2.411a5.99 5.99 0 0 0-6 5.988c0 5.729 6 13.2 6 13.2s6-7.472 6-13.2a5.99 5.99 0 0 0-6-5.988zm0 9.301a3.24 3.24 0 0 1-2.291-.949 3.24 3.24 0 0 1 0-4.582 3.24 3.24 0 0 1 4.582 0 3.24 3.24 0 0 1 0 4.582 3.24 3.24 0 0 1-2.291.949z"/></symbol><symbol id="icon-close-btn" viewBox="0 0 24 24"><path stroke-linejoin="round" stroke-linecap="round" stroke-width="1.5" d="m20.571 2.572-18 18m.001-18 18 18"/></symbol><symbol id="icon-instagraml" viewBox="0 0 24 24"><path d="M7.465 1.066C8.638 1.012 9.012 1 12 1s3.362.013 4.534.066c1.172.053 1.972.24 2.672.511.733.277 1.398.71 1.948 1.27.56.549.992 1.213 1.268 1.947.272.7.458 1.5.512 2.67C22.988 8.639 23 9.013 23 12c0 2.988-.013 3.362-.066 4.535-.053 1.17-.24 1.97-.512 2.67a5.402 5.402 0 0 1-1.268 1.949c-.55.56-1.215.992-1.948 1.268-.7.272-1.5.458-2.67.512-1.174.054-1.548.066-4.536.066s-3.362-.013-4.535-.066c-1.17-.053-1.97-.24-2.67-.512a5.402 5.402 0 0 1-1.949-1.268 5.38 5.38 0 0 1-1.269-1.948c-.271-.7-.457-1.5-.511-2.67C1.012 15.361 1 14.987 1 12c0-2.988.013-3.362.066-4.534s.24-1.972.511-2.672a5.395 5.395 0 0 1 1.27-1.948 5.375 5.375 0 0 1 1.947-1.269c.7-.271 1.5-.457 2.67-.511h.001zm8.98 1.98c-1.16-.053-1.508-.064-4.445-.064s-3.285.011-4.445.064c-1.073.049-1.655.228-2.043.379-.513.2-.88.437-1.265.822a3.407 3.407 0 0 0-.822 1.265c-.151.388-.33.97-.379 2.043-.053 1.16-.064 1.508-.064 4.445s.011 3.285.064 4.445c.049 1.073.228 1.655.379 2.043.176.477.457.91.822 1.265.355.365.788.646 1.265.822.388.151.97.33 2.043.379 1.16.053 1.507.064 4.445.064s3.285-.011 4.445-.064c1.073-.049 1.655-.228 2.043-.379.513-.2.88-.437 1.265-.822.365-.355.646-.788.822-1.265.151-.388.33-.97.379-2.043.053-1.16.064-1.508.064-4.445s-.011-3.285-.064-4.445c-.049-1.073-.228-1.655-.379-2.043-.2-.513-.437-.88-.822-1.265a3.406 3.406 0 0 0-1.265-.822c-.388-.151-.97-.33-2.043-.379zm-5.85 12.345a3.667 3.667 0 0 0 4.461-1.348 3.67 3.67 0 0 0-.461-4.637 3.67 3.67 0 0 0-2.955-1.057 3.67 3.67 0 0 0-2.691 1.614 3.668 3.668 0 0 0-.461 3.103 3.668 3.668 0 0 0 2.106 2.325zM8.002 8.002a5.651 5.651 0 0 1 9.222 1.834 5.656 5.656 0 0 1 0 4.328A5.656 5.656 0 0 1 12 17.654 5.656 5.656 0 0 1 6.346 12c0-1.499.596-2.938 1.656-3.998zm10.906-.814a1.337 1.337 0 0 0-.938-2.31 1.337 1.337 0 0 0-.953.419 1.335 1.335 0 0 0 .953 2.254 1.34 1.34 0 0 0 .937-.364z"/></symbol><symbol id="icon-phone" viewBox="0 0 24 24"><path d="M15.75 2A2.25 2.25 0 0 1 18 4.25v15.5A2.25 2.25 0 0 1 15.75 22h-7.5A2.25 2.25 0 0 1 6 19.75V4.25A2.25 2.25 0 0 1 8.25 2h7.5zm0 1.5h-7.5a.753.753 0 0 0-.75.75v15.5c0 .414.336.75.75.75h7.5a.753.753 0 0 0 .75-.75V4.25a.753.753 0 0 0-.75-.75zm-2.501 14a.75.75 0 1 1 .002 1.5l-2.5.004a.75.75 0 1 1-.002-1.5l2.5-.004z"/></symbol><symbol id="icon-facebook" viewBox="0 0 24 24"><path d="M10.695 8.937v1.377H9.687v1.683h1.008V17h2.072v-5.003h1.39s.131-.807.194-1.69h-1.576v-1.15c0-.173.226-.404.45-.404h1.128V7h-1.535c-2.174 0-2.123 1.685-2.123 1.937z"/><path d="M6 4a2 2 0 0 0-2 2v12a2 2 0 0 0 2 2h12a2 2 0 0 0 2-2V6a2 2 0 0 0-2-2H6zm0-2h12a4.003 4.003 0 0 1 4 4v12a4.001 4.001 0 0 1-4 4H6a4.001 4.001 0 0 1-4-4V6a4.003 4.003 0 0 1 4-4z"/></symbol><symbol id="icon-telegram" viewBox="0 0 24 24"><path d="M19.553 2.997a2.253 2.253 0 0 0-.7.167h-.003c-.214.085-1.23.512-2.775 1.16l-5.536 2.332c-3.973 1.673-7.878 3.32-7.878 3.32l.046-.018s-.269.089-.55.281a1.536 1.536 0 0 0-.44.425 1.247 1.247 0 0 0-.208.832c.067.541.418.866.671 1.046.255.181.498.266.498.266h.006l3.662 1.234c.164.527 1.116 3.656 1.345 4.377.135.431.266.7.431.905.079.105.172.193.284.263a.87.87 0 0 0 .185.08l-.038-.009c.011.003.02.012.029.015.03.008.05.011.088.017.58.175 1.046-.184 1.046-.184l.026-.021 2.162-1.969 3.624 2.78.082.035c.755.331 1.52.147 1.924-.178.407-.328.566-.747.566-.747l.026-.067 2.801-14.347c.079-.354.1-.685.012-1.007-.09-.326-.3-.606-.586-.785a1.406 1.406 0 0 0-.8-.203zm-.076 1.537c-.003.047.006.042-.015.133v.008l-2.774 14.197c-.012.02-.032.064-.088.109-.058.047-.105.076-.349-.021l-4.432-3.398-2.678 2.441.563-3.593 7.242-6.75c.298-.277.199-.336.199-.336.021-.341-.451-.1-.451-.1l-9.132 5.657-.003-.015-4.388-1.479.023-.009.024-.012.023-.008 7.881-3.32c1.989-.838 3.993-1.682 5.534-2.333.914-.385 1.829-.767 2.745-1.147.062-.024.032-.024.077-.024v-.001z"/></symbol><symbol id="icon-arrow-down-bold" viewBox="0 0 24 24"><path d="M2.454 7.939a1.5 1.5 0 0 1 2.12 0l7.425 7.425 7.425-7.425a1.503 1.503 0 0 1 2.103.018 1.498 1.498 0 0 1 .018 2.103l-8.485 8.485a1.5 1.5 0 0 1-2.121 0l-8.486-8.486a1.5 1.5 0 0 1 0-2.121z"/></symbol><symbol id="icon-arrow-left" viewBox="0 0 32 32"><path d="M31.083 15H5.005l6-6-1.414-1.414L1.177 16l8.414 8.414L11.005 23l-6-6h26.078v-2z"/></symbol><symbol id="icon-arrow-right" viewBox="0 0 32 32"><path d="M22.492 7.586 21.078 9l6 6H1v2h26.078l-6 6 1.414 1.414L30.906 16l-8.414-8.414z"/></symbol></defs></svg>