<svg aria-hidden="true" style="width:0;height:0;position:absolute;overflow:hidden" xmlns="http://www.w3.org/2000/svg"><defs><symbol id="icon-arrow-left" viewBox="0 0 20 20"><path d="M19.375 9.681H3.025l3.762-3.788L5.9 5 .625 10.312 5.9 15.625l.887-.893-3.762-3.788h16.35V9.681z"/></symbol><symbol id="icon-arrow-right" viewBox="0 0 20 20"><path d="m14.1 5-.887.893 3.762 3.788H.625v1.263h16.35l-3.762 3.788.887.893 5.275-5.313L14.1 4.999z"/></symbol><symbol id="icon-down-bold" viewBox="0 0 20 20"><path d="M2.045 6.616a1.25 1.25 0 0 1 1.768 0l6.188 6.187 6.188-6.187a1.25 1.25 0 0 1 1.752.015 1.25 1.25 0 0 1 .015 1.752l-7.071 7.071a1.25 1.25 0 0 1-1.768 0L2.046 8.383a1.25 1.25 0 0 1 0-1.768z"/></symbol><symbol id="icon-facebook" viewBox="0 0 20 20"><path d="M8.912 7.447v1.148h-.84v1.402h.84v4.169h1.727V9.997h1.158s.109-.673.162-1.408h-1.313v-.958c0-.144.188-.337.375-.337h.94V5.833h-1.279c-1.812 0-1.769 1.404-1.769 1.614z"/><path d="M5 3.333A1.663 1.663 0 0 0 3.333 5v10A1.667 1.667 0 0 0 5 16.666h10A1.667 1.667 0 0 0 16.666 15V5A1.664 1.664 0 0 0 15 3.333H5zm0-1.666h10A3.333 3.333 0 0 1 18.333 5v10A3.333 3.333 0 0 1 15 18.333H5A3.333 3.333 0 0 1 1.667 15V5A3.333 3.333 0 0 1 5 1.667z"/></symbol><symbol id="icon-phone" viewBox="0 0 20 20"><path d="M13.125 1.667A1.873 1.873 0 0 1 15 3.542v12.917a1.873 1.873 0 0 1-1.875 1.875h-6.25A1.873 1.873 0 0 1 5 16.459V3.542a1.873 1.873 0 0 1 1.875-1.875h6.25zm0 1.25h-6.25a.625.625 0 0 0-.625.625v12.917c0 .345.28.625.625.625h6.25a.625.625 0 0 0 .625-.625V3.542a.625.625 0 0 0-.625-.625zm-2.084 11.666c.166 0 .325.065.442.183s.183.276.184.442-.065.325-.183.442a.63.63 0 0 1-.442.184l-2.083.003c-.166 0-.325-.065-.442-.183s-.183-.276-.184-.442a.624.624 0 0 1 .624-.626l2.083-.003z"/></symbol><symbol id="icon-instagraml" viewBox="0 0 20 20"><path d="M6.221.888C7.199.843 7.51.833 10 .833s2.802.011 3.778.055c.977.044 1.643.2 2.227.426a4.514 4.514 0 0 1 1.623 1.058 4.469 4.469 0 0 1 1.057 1.623c.227.583.382 1.25.427 2.225.045.979.055 1.291.055 3.78s-.011 2.802-.055 3.779c-.044.975-.2 1.642-.427 2.225a4.494 4.494 0 0 1-1.057 1.624 4.494 4.494 0 0 1-1.623 1.057c-.583.227-1.25.382-2.225.427-.978.045-1.29.055-3.78.055s-2.802-.011-3.779-.055c-.975-.044-1.642-.2-2.225-.427a4.494 4.494 0 0 1-1.624-1.057 4.499 4.499 0 0 1-1.057-1.623c-.226-.583-.381-1.25-.426-2.225C.844 12.801.834 12.489.834 10s.011-2.802.055-3.778.2-1.643.426-2.227a4.497 4.497 0 0 1 1.058-1.623 4.506 4.506 0 0 1 1.623-1.058c.583-.226 1.25-.381 2.225-.426h.001zm7.483 1.65c-.967-.044-1.257-.053-3.704-.053s-2.737.009-3.704.053c-.894.041-1.379.19-1.702.316a2.845 2.845 0 0 0-1.054.685 2.848 2.848 0 0 0-.685 1.054c-.126.323-.275.808-.316 1.702-.044.967-.053 1.257-.053 3.704s.009 2.737.053 3.704c.041.894.19 1.379.316 1.702.147.397.381.758.685 1.054.296.304.657.538 1.054.685.323.126.808.275 1.702.316.967.044 1.256.053 3.704.053s2.737-.009 3.704-.053c.894-.041 1.379-.19 1.702-.316a2.845 2.845 0 0 0 1.054-.685c.304-.296.538-.657.685-1.054.126-.323.275-.808.316-1.702.044-.967.053-1.257.053-3.704s-.009-2.737-.053-3.704c-.041-.894-.19-1.379-.316-1.702a2.845 2.845 0 0 0-.685-1.054 2.848 2.848 0 0 0-1.054-.685c-.323-.126-.808-.275-1.702-.316zM8.829 12.826a3.059 3.059 0 0 0 4.217-3.125 3.06 3.06 0 0 0-2.016-2.58 3.052 3.052 0 0 0-2.602.256 3.047 3.047 0 0 0-1.452 2.174 3.065 3.065 0 0 0 .758 2.502c.304.335.678.599 1.095.772zM6.668 6.668A4.727 4.727 0 0 1 10 5.288a4.708 4.708 0 0 1 4.353 2.909 4.708 4.708 0 0 1 0 3.606 4.726 4.726 0 0 1-1.021 1.529A4.71 4.71 0 0 1 5.288 10a4.71 4.71 0 0 1 1.38-3.332zm9.089-.678a1.111 1.111 0 0 0 .267-1.23 1.118 1.118 0 0 0-1.482-.602 1.116 1.116 0 0 0-.666 1.036 1.114 1.114 0 0 0 1.098 1.098c.29.004.57-.105.781-.304z"/></symbol><symbol id="icon-location-pin-20" viewBox="0 0 20 20"><path d="M10 2.009c-2.762 0-5 2.229-5 4.99 0 4.774 5 11 5 11s5-6.227 5-11c0-2.76-2.238-4.99-5-4.99zm0 7.751a2.697 2.697 0 0 1-2.7-2.7 2.697 2.697 0 0 1 2.7-2.7 2.697 2.697 0 0 1 2.7 2.7 2.697 2.697 0 0 1-2.7 2.7z"/></symbol><symbol id="icon-telegram" viewBox="0 0 20 20"><path d="M16.294 2.497a1.882 1.882 0 0 0-.583.139h-.003c-.178.071-1.025.427-2.312.967L8.782 5.546 2.217 8.312l.039-.015s-.224.074-.459.234a1.273 1.273 0 0 0-.366.354 1.036 1.036 0 0 0-.173.694c.056.451.349.722.559.871.213.151.415.222.415.222h.005L5.289 11.7c.137.439.93 3.047 1.121 3.647.112.359.222.583.359.754a.883.883 0 0 0 .237.219c.048.028.1.05.154.066l-.031-.008c.009.003.017.01.024.012.025.007.042.009.074.014.483.146.871-.154.871-.154l.022-.017 1.802-1.641 3.02 2.317.069.029c.629.276 1.267.122 1.604-.149.339-.273.471-.623.471-.623l.022-.056 2.334-11.956c.066-.295.083-.571.01-.839a1.128 1.128 0 0 0-1.155-.823zm-.063 1.282c-.003.039.005.035-.012.111v.007l-2.312 11.831c-.01.017-.027.054-.073.091-.049.039-.088.063-.291-.018l-3.694-2.832-2.231 2.034.469-2.994 6.035-5.625c.249-.231.166-.28.166-.28.018-.284-.376-.083-.376-.083l-7.61 4.714-.003-.012-3.657-1.232a.154.154 0 0 0 .019-.008l.02-.01.019-.007S5.957 8.093 9.268 6.7c1.658-.698 3.328-1.401 4.612-1.944.762-.321 1.524-.639 2.288-.956.051-.02.027-.021.064-.021z"/></symbol><symbol id="icon-x-close" viewBox="0 0 20 20"><path stroke-linejoin="round" stroke-linecap="round" stroke-width="1.25" d="m17.143 2.143-15 15m0-15 15 15"/></symbol></defs></svg>