<svg aria-hidden="true" style="position:absolute;width:0;height:0;overflow:hidden" xmlns="http://www.w3.org/2000/svg">
  <defs>
    <symbol id="icon-arrow-left" viewBox="0 0 20 20">
      <path d="M19.375 9.681H3.025l3.762-3.788L5.9 5 .625 10.312 5.9 15.625l.887-.893-3.762-3.788h16.35V9.681z"/>
    </symbol>
    <symbol id="icon-arrow-right" viewBox="0 0 20 20">
      <path d="m14.1 5-.887.893 3.762 3.788H.625v1.263h16.35l-3.762 3.788.887.893 5.275-5.313L14.1 4.999z"/>
    </symbol>
    <symbol id="icon-down-bold" viewBox="0 0 20 20">
      <path d="M2.045 6.616a1.2504 1.2504 0 0 1 1.768 0l6.188 6.187 6.188-6.187a1.2493 1.2493 0 0 1 1.752.015 1.2495 1.2495 0 0 1 .015 1.752l-7.071 7.071a1.2504 1.2504 0 0 1-1.768 0L2.046 8.383a1.2504 1.2504 0 0 1 0-1.768z"/>
    </symbol>
    <symbol id="icon-facebook" viewBox="0 0 20 20">
      <path d="M8.912 7.447v1.148h-.84v1.402h.84v4.169h1.727V9.997h1.158s.109-.673.162-1.408h-1.313v-.958c0-.144.188-.337.375-.337h.94V5.833h-1.279c-1.812 0-1.769 1.404-1.769 1.614z"/>
      <path d="M5 3.333c-.442 0-.866.176-1.179.488S3.333 4.557 3.333 5v10c0 .442.176.866.488 1.178s.736.488 1.179.488h10c.442 0 .866-.176 1.178-.488s.488-.737.488-1.178V5c0-.442-.176-.866-.488-1.179s-.737-.488-1.178-.488H5zm0-1.666h10c.884 0 1.732.351 2.357.976s.976 1.473.976 2.357v10c0 .884-.351 1.732-.976 2.357s-1.473.976-2.357.976H5c-.884 0-1.732-.351-2.357-.976S1.667 15.884 1.667 15V5c0-.884.351-1.732.976-2.357S4.116 1.667 5 1.667z"/>
    </symbol>
    <symbol id="icon-phone" viewBox="0 0 20 20">
      <path d="M13.125 1.667c.497 0 .974.198 1.326.549S15 3.045 15 3.542v12.917c0 .497-.198.974-.549 1.326s-.829.549-1.326.549h-6.25c-.497 0-.974-.198-1.326-.549S5 16.956 5 16.459V3.542c0-.497.198-.974.549-1.326s.829-.549 1.326-.549h6.25zm0 1.25h-6.25a.6252.6252 0 0 0-.625.625v12.917c0 .345.28.625.625.625h6.25a.6252.6252 0 0 0 .625-.625V3.542a.6252.6252 0 0 0-.625-.625zm-2.084 11.666c.166 0 .325.065.442.183s.183.276.184.442-.065.325-.183.442a.6304.6304 0 0 1-.442.184l-2.083.003c-.166 0-.325-.065-.442-.183s-.183-.276-.184-.442c0-.166.065-.325.182-.442s.276-.183.442-.184l2.083-.003z"/>
    </symbol>
    <symbol id="icon-instagraml" viewBox="0 0 20 20">
      <path d="M6.221.888C7.199.843 7.51.833 10 .833s2.802.011 3.778.055c.977.044 1.643.2 2.227.426.611.231 1.165.592 1.623 1.058.467.457.827 1.011 1.057 1.623.227.583.382 1.25.427 2.225.045.979.055 1.291.055 3.78s-.011 2.802-.055 3.779c-.044.975-.2 1.642-.427 2.225a4.494 4.494 0 0 1-1.057 1.624c-.458.467-1.013.827-1.623 1.057-.583.227-1.25.382-2.225.427-.978.045-1.29.055-3.78.055s-2.802-.011-3.779-.055c-.975-.044-1.642-.2-2.225-.427a4.494 4.494 0 0 1-1.624-1.057 4.4987 4.4987 0 0 1-1.057-1.623c-.226-.583-.381-1.25-.426-2.225C.844 12.801.834 12.489.834 10s.011-2.802.055-3.778.2-1.643.426-2.227c.231-.612.592-1.166 1.058-1.623a4.5058 4.5058 0 0 1 1.623-1.058c.583-.226 1.25-.381 2.225-.426h.001zm7.483 1.65c-.967-.044-1.257-.053-3.704-.053s-2.737.009-3.704.053c-.894.041-1.379.19-1.702.316-.428.167-.733.364-1.054.685-.304.296-.538.656-.685 1.054-.126.323-.275.808-.316 1.702-.044.967-.053 1.257-.053 3.704s.009 2.737.053 3.704c.041.894.19 1.379.316 1.702.147.397.381.758.685 1.054.296.304.657.538 1.054.685.323.126.808.275 1.702.316.967.044 1.256.053 3.704.053s2.737-.009 3.704-.053c.894-.041 1.379-.19 1.702-.316.428-.167.733-.364 1.054-.685.304-.296.538-.657.685-1.054.126-.323.275-.808.316-1.702.044-.967.053-1.257.053-3.704s-.009-2.737-.053-3.704c-.041-.894-.19-1.379-.316-1.702-.167-.428-.364-.733-.685-1.054a2.8484 2.8484 0 0 0-1.054-.685c-.323-.126-.808-.275-1.702-.316zM8.829 12.826c.654.272 1.382.309 2.06.104s1.264-.639 1.657-1.228.57-1.296.5-2.001-.383-1.363-.884-1.863c-.32-.32-.707-.564-1.132-.717s-.88-.208-1.33-.164-.884.188-1.272.42c-.388.232-.719.548-.97.924s-.416.803-.482 1.25c-.066.447-.033.904.098 1.336s.357.831.66 1.166c.304.335.678.599 1.095.772zM6.668 6.668c.438-.438.957-.785 1.529-1.021S9.381 5.288 10 5.288s1.231.122 1.803.359 1.091.584 1.529 1.021c.437.438.785.957 1.021 1.529s.359 1.184.359 1.803-.122 1.231-.359 1.803a4.7255 4.7255 0 0 1-1.021 1.529c-.884.884-2.082 1.38-3.332 1.38s-2.448-.496-3.332-1.38c-.884-.884-1.38-2.082-1.38-3.332s.496-2.448 1.38-3.332zm9.089-.678c.108-.102.195-.225.255-.362s.092-.283.094-.433c.002-.149-.026-.297-.082-.435s-.139-.264-.245-.369c-.105-.105-.231-.189-.369-.245s-.286-.084-.435-.082c-.149.002-.296.034-.433.094s-.259.147-.362.255c-.199.211-.308.491-.304.781a1.1136 1.1136 0 0 0 1.098 1.098c.29.004.57-.105.781-.304z"/>
    </symbol>
    <symbol id="icon-location-pin-20" viewBox="0 0 20 20">
      <path d="M10 2.009c-2.762 0-5 2.229-5 4.99 0 4.774 5 11 5 11s5-6.227 5-11c0-2.76-2.238-4.99-5-4.99zm0 7.751c-.716 0-1.403-.284-1.909-.791S7.3 7.776 7.3 7.06s.284-1.403.791-1.909S9.284 4.36 10 4.36s1.403.284 1.909.791.791 1.193.791 1.909-.284 1.403-.791 1.909c-.506.506-1.193.791-1.909.791z"/>
    </symbol>
    <symbol id="icon-telegram" viewBox="0 0 20 20">
      <path d="M16.294 2.497c-.201.015-.398.062-.583.139h-.003c-.178.071-1.025.427-2.312.967L8.782 5.546C5.471 6.94 2.217 8.312 2.217 8.312l.039-.015s-.224.074-.459.234c-.145.092-.269.213-.366.354-.115.169-.208.427-.173.694.056.451.349.722.559.871.213.151.415.222.415.222h.005L5.289 11.7c.137.439.93 3.047 1.121 3.647.112.359.222.583.359.754.066.087.144.161.237.219.048.028.1.05.154.066l-.031-.008c.009.003.017.01.024.012.025.007.042.009.074.014.483.146.871-.154.871-.154l.022-.017 1.802-1.641 3.02 2.317.069.029c.629.276 1.267.122 1.604-.149.339-.273.471-.623.471-.623l.022-.056 2.334-11.956c.066-.295.083-.571.01-.839-.075-.271-.25-.505-.488-.654-.2-.122-.433-.181-.667-.169zm-.063 1.282c-.003.039.005.035-.012.111v.007l-2.312 11.831c-.01.017-.027.054-.073.091-.049.039-.088.063-.291-.018l-3.694-2.832-2.231 2.034.469-2.994 6.035-5.625c.249-.231.166-.28.166-.28.018-.284-.376-.083-.376-.083l-7.61 4.714-.003-.012-3.657-1.232a.1539.1539 0 0 0 .019-.008l.02-.01.019-.007S5.957 8.093 9.268 6.7c1.658-.698 3.328-1.401 4.612-1.944.762-.321 1.524-.639 2.288-.956.051-.02.027-.021.064-.021z"/>
    </symbol>
    <symbol id="icon-x-close" viewBox="0 0 20 20">
      <path stroke-linejoin="round" stroke-linecap="round" stroke-width="1.25" d="m17.143 2.143-15 15M2.143 2.143l15 15"/>
    </symbol>
  </defs>
</svg>
