<svg aria-hidden="true" style="position:absolute;width:0;height:0;overflow:hidden" xmlns="http://www.w3.org/2000/svg">
  <defs>
    <symbol id="icon-location-pin" viewBox="0 0 24 24">
      <path d="M12 2.411c-3.314 0-6 2.675-6 5.988 0 5.729 6 13.2 6 13.2s6-7.472 6-13.2c0-3.312-2.686-5.988-6-5.988zm0 9.301c-.859 0-1.683-.341-2.291-.949a3.2395 3.2395 0 0 1 0-4.582 3.2395 3.2395 0 0 1 4.582 0 3.2395 3.2395 0 0 1 0 4.582c-.608.608-1.432.949-2.291.949z"/>
    </symbol>
    <symbol id="icon-close-btn" viewBox="0 0 24 24">
      <path stroke-linejoin="round" stroke-linecap="round" stroke-width="1.5" d="m20.571 2.572-18 18M2.572 2.572l18 18"/>
    </symbol>
    <symbol id="icon-instagraml" viewBox="0 0 24 24">
      <path d="M7.465 1.066C8.638 1.012 9.012 1 12 1s3.362.013 4.534.066c1.172.053 1.972.24 2.672.511.733.277 1.398.71 1.948 1.27.56.549.992 1.213 1.268 1.947.272.7.458 1.5.512 2.67C22.988 8.639 23 9.013 23 12c0 2.988-.013 3.362-.066 4.535-.053 1.17-.24 1.97-.512 2.67a5.402 5.402 0 0 1-1.268 1.949c-.55.56-1.215.992-1.948 1.268-.7.272-1.5.458-2.67.512-1.174.054-1.548.066-4.536.066s-3.362-.013-4.535-.066c-1.17-.053-1.97-.24-2.67-.512a5.402 5.402 0 0 1-1.949-1.268 5.3792 5.3792 0 0 1-1.269-1.948c-.271-.7-.457-1.5-.511-2.67C1.012 15.361 1 14.987 1 12c0-2.988.013-3.362.066-4.534s.24-1.972.511-2.672c.277-.734.71-1.399 1.27-1.948.549-.56 1.213-.993 1.947-1.269.7-.271 1.5-.457 2.67-.511h.001zm8.98 1.98c-1.16-.053-1.508-.064-4.445-.064s-3.285.011-4.445.064c-1.073.049-1.655.228-2.043.379-.513.2-.88.437-1.265.822-.365.355-.646.787-.822 1.265-.151.388-.33.97-.379 2.043-.053 1.16-.064 1.508-.064 4.445s.011 3.285.064 4.445c.049 1.073.228 1.655.379 2.043.176.477.457.91.822 1.265.355.365.788.646 1.265.822.388.151.97.33 2.043.379 1.16.053 1.507.064 4.445.064s3.285-.011 4.445-.064c1.073-.049 1.655-.228 2.043-.379.513-.2.88-.437 1.265-.822.365-.355.646-.788.822-1.265.151-.388.33-.97.379-2.043.053-1.16.064-1.508.064-4.445s-.011-3.285-.064-4.445c-.049-1.073-.228-1.655-.379-2.043-.2-.513-.437-.88-.822-1.265a3.4065 3.4065 0 0 0-1.265-.822c-.388-.151-.97-.33-2.043-.379zm-5.85 12.345c.785.327 1.658.371 2.472.125s1.516-.767 1.989-1.473a3.6698 3.6698 0 0 0-.461-4.637c-.384-.384-.848-.677-1.359-.86s-1.056-.25-1.596-.197a3.6705 3.6705 0 0 0-2.691 1.614 3.6678 3.6678 0 0 0-.461 3.103 3.6677 3.6677 0 0 0 2.106 2.325zM8.002 8.002c.525-.525 1.148-.942 1.834-1.226s1.421-.43 2.164-.43c.742 0 1.478.146 2.164.43s1.309.701 1.834 1.226c.525.525.942 1.148 1.226 1.834s.43 1.421.43 2.164-.146 1.478-.43 2.164A5.6558 5.6558 0 0 1 12 17.654c-1.499 0-2.938-.596-3.998-1.656S6.346 13.499 6.346 12s.596-2.938 1.656-3.998zm10.906-.814c.13-.123.234-.27.306-.434s.111-.34.113-.519c.003-.179-.031-.356-.098-.522s-.167-.316-.294-.443c-.126-.126-.277-.226-.443-.294s-.343-.101-.522-.098a1.3367 1.3367 0 0 0-.953.419c-.239.253-.369.589-.364.937s.145.68.391.926c.246.246.578.386.926.391s.684-.126.937-.364z"/>
    </symbol>
    <symbol id="icon-phone" viewBox="0 0 24 24">
      <path d="M15.75 2c.597 0 1.169.237 1.591.659S18 3.653 18 4.25v15.5c0 .597-.237 1.169-.659 1.591S16.347 22 15.75 22h-7.5c-.597 0-1.169-.237-1.591-.659S6 20.347 6 19.75V4.25c0-.597.237-1.169.659-1.591S7.653 2 8.25 2h7.5zm0 1.5h-7.5c-.199 0-.39.079-.53.22s-.22.331-.22.53v15.5c0 .414.336.75.75.75h7.5c.199 0 .39-.079.53-.22s.22-.331.22-.53V4.25c0-.199-.079-.39-.22-.53s-.331-.22-.53-.22zm-2.501 14c.199 0 .39.078.531.219s.22.331.22.53-.078.39-.219.531c-.14.141-.331.22-.53.22l-2.5.004c-.199 0-.39-.078-.531-.219s-.22-.331-.22-.53.078-.39.219-.531.331-.22.53-.22l2.5-.004z"/>
    </symbol>
    <symbol id="icon-facebook" viewBox="0 0 24 24">
      <path d="M10.695 8.937v1.377H9.687v1.683h1.008V17h2.072v-5.003h1.39s.131-.807.194-1.69h-1.576v-1.15c0-.173.226-.404.45-.404h1.128V7h-1.535c-2.174 0-2.123 1.685-2.123 1.937z"/>
      <path d="M6 4a2.0006 2.0006 0 0 0-2 2v12a2.0006 2.0006 0 0 0 2 2h12a2.0006 2.0006 0 0 0 2-2V6a2.0006 2.0006 0 0 0-2-2H6zm0-2h12c1.061 0 2.078.421 2.828 1.172S22 4.94 22 6v12c0 1.061-.421 2.078-1.172 2.828S19.061 22 18 22H6c-1.061 0-2.078-.421-2.828-1.172S2 19.061 2 18V6c0-1.061.421-2.078 1.172-2.828S4.94 2 6 2z"/>
    </symbol>
    <symbol id="icon-telegram" viewBox="0 0 24 24">
      <path d="M19.553 2.997c-.241.018-.477.074-.7.167h-.003c-.214.085-1.23.512-2.775 1.16l-5.536 2.332c-3.973 1.673-7.878 3.32-7.878 3.32l.046-.018s-.269.089-.55.281a1.536 1.536 0 0 0-.44.425c-.138.203-.249.512-.208.832.067.541.418.866.671 1.046.255.181.498.266.498.266h.006l3.662 1.234c.164.527 1.116 3.656 1.345 4.377.135.431.266.7.431.905.079.105.172.193.284.263.058.034.12.06.185.08l-.038-.009c.011.003.02.012.029.015.03.008.05.011.088.017.58.175 1.046-.184 1.046-.184l.026-.021 2.162-1.969 3.624 2.78.082.035c.755.331 1.52.147 1.924-.178.407-.328.566-.747.566-.747l.026-.067 2.801-14.347c.079-.354.1-.685.012-1.007-.09-.326-.3-.606-.586-.785-.24-.146-.519-.217-.8-.203zm-.076 1.537c-.003.047.006.042-.015.133v.008l-2.774 14.197c-.012.02-.032.064-.088.109-.058.047-.105.076-.349-.021l-4.432-3.398-2.678 2.441.563-3.593 7.242-6.75c.298-.277.199-.336.199-.336.021-.341-.451-.1-.451-.1l-9.132 5.657-.003-.015-4.388-1.479c.008-.003.015-.006.023-.009l.024-.012.023-.008s3.908-1.647 7.881-3.32c1.989-.838 3.993-1.682 5.534-2.333.914-.385 1.829-.767 2.745-1.147.062-.024.032-.024.077-.024v-.001z"/>
    </symbol>
    <symbol id="icon-arrow-down-bold" viewBox="0 0 24 24">
      <path d="M2.454 7.939c0.281-0.281 0.663-0.439 1.060-0.439s0.779 0.158 1.060 0.439l7.425 7.425 7.425-7.425c0.283-0.273 0.662-0.424 1.055-0.421s0.77 0.161 1.048 0.439c0.278 0.278 0.436 0.654 0.439 1.048s-0.148 0.772-0.421 1.055l-8.485 8.485c-0.281 0.281-0.663 0.439-1.061 0.439s-0.779-0.158-1.060-0.439l-8.486-8.486c-0.281-0.281-0.439-0.663-0.439-1.060s0.158-0.779 0.439-1.061z"></path>
    </symbol>
    <symbol id="icon-arrow-left" viewBox="0 0 32 32">
      <path d="M31.083 15h-26.078l6-6-1.414-1.414-8.414 8.414 8.414 8.414 1.414-1.414-6-6h26.078v-2z"></path>
    </symbol>
    <symbol id="icon-arrow-right" viewBox="0 0 32 32">
      <path d="M22.492 7.586l-1.414 1.414 6 6h-26.078v2h26.078l-6 6 1.414 1.414 8.414-8.414-8.414-8.414z"></path>
    </symbol>
  </defs>
</svg>
